<?xml version="1.0" encoding="utf-8"?>
<!-- Generator: Adobe Illustrator 21.0.0, SVG Export Plug-In . SVG Version: 6.00 Build 0)  -->
<svg version="1.1" id="Слой_1" xmlns="http://www.w3.org/2000/svg" xmlns:xlink="http://www.w3.org/1999/xlink" x="0px" y="0px"
	 width="43px" height="50px" viewBox="0 0 43 50" style="enable-background:new 0 0 43 50;" xml:space="preserve">
<style type="text/css">
	.st0{fill:none;stroke:url(#SVGID_1_);stroke-width:2;stroke-linecap:round;stroke-linejoin:round;stroke-miterlimit:10;}
</style>
<linearGradient id="SVGID_1_" gradientUnits="userSpaceOnUse" x1="0" y1="25" x2="43" y2="25">
	<stop  offset="0" style="stop-color:#EF5050"/>
	<stop  offset="1" style="stop-color:#EA7760"/>
</linearGradient>
<path class="st0" d="M8.064,42.214v5.016V49 M42,46.702v-5.986c0-5.232-4.511-7.134-4.703-7.212
	c-0.006-0.002-0.011-0.005-0.017-0.007L26.627,29.4v-2.481c1.692-1.307,2.865-3.244,3.16-5.454c0.844-0.059,1.626-0.372,2.266-0.918
	c0.835-0.713,1.314-1.751,1.314-2.847c0-0.909-0.33-1.778-0.919-2.455v-3.278C32.447,5.92,27.493,1,21.404,1
	S10.361,5.92,10.361,11.967v3.364c-0.595,0.67-0.919,1.494-0.919,2.369c0,1.096,0.479,2.134,1.314,2.847
	c0.639,0.546,1.421,0.858,2.265,0.917c0.297,2.252,1.504,4.261,3.34,5.585v2.35L5.72,33.497c-0.006,0.002-0.011,0.004-0.017,0.007
	C5.511,33.582,1,35.484,1,40.716v6.025C1,47.986,2.02,49,3.274,49h8.489l4.158,0h23.804C40.98,49,42,47.987,42,46.741v-0.29
	L42,46.702z M24.741,38.582c0.397,0.28,0.702,0.549,1.276,0.549c0.583,0,1.128-0.324,1.397-0.858v0l3.609-7.183 M34.936,49v-1.77
	v-5.016 M12.046,31.061l3.534,7.213c0.269,0.535,0.815,0.858,1.397,0.858c0.57,0,0.873-0.265,1.276-0.549 M18.253,38.582
	l3.244-2.288l3.244,2.288 M21.497,33.797 M16.361,27.05c0,0,0.835,0.599,1.782,0.98c1.083,0.433,2.239,0.634,3.369,0.634
	c1.168,0,2.314-0.247,3.333-0.69c0,0,0.111-0.023,1.782-1.055 M29.787,21.464l0.075-1.789v-3.95l0-1.783 M13.02,21.464l-0.074-1.789
	V15.77l0.048-1.803 M32.447,15.246c-0.633-0.79-1.782-1.149-1.782-1.149c-0.259-0.078-0.528-0.13-0.803-0.154
	c0-0.854,0.007-0.689-2.805-3.692c-0.517-0.552-1.373-0.668-2.024-0.245c-3.104,2.014-6.891,3.026-10.385,2.777
	c-0.766-0.057-1.464,0.444-1.652,1.185c-0.284,0.032-0.609,0.109-0.852,0.191c-1.262,0.419-1.782,1.174-1.782,1.174 M16.361,29.4
	l5.136,6.894l5.13-6.894"/>
</svg>
