<?xml version="1.0" encoding="utf-8"?>
<!-- Generator: Adobe Illustrator 21.0.0, SVG Export Plug-In . SVG Version: 6.00 Build 0)  -->
<svg version="1.1" id="Слой_1" xmlns="http://www.w3.org/2000/svg" xmlns:xlink="http://www.w3.org/1999/xlink" x="0px" y="0px"
	 width="42px" height="38px" viewBox="0 0 42 38" style="enable-background:new 0 0 42 38;" xml:space="preserve">
<style type="text/css">
	.st0{fill:none;stroke:url(#SVGID_1_);stroke-width:2;stroke-linecap:round;stroke-linejoin:round;stroke-miterlimit:10;}
</style>
<linearGradient id="SVGID_1_" gradientUnits="userSpaceOnUse" x1="0" y1="19" x2="42" y2="19">
	<stop  offset="0" style="stop-color:#EF5050"/>
	<stop  offset="1" style="stop-color:#EA7760"/>
</linearGradient>
<path class="st0" d="M11.75,21.438c-0.317,0-0.581,0.185-0.791,0.439l-2.318,3.612l-2.318-3.612
	c-0.156-0.312-0.473-0.439-0.791-0.439H2.791c-1,0-1.791-0.935-1.791-2.118V3.118C1,1.935,1.791,1,2.791,1H25.56
	c1,0,1.791,0.935,1.791,2.118v10.531v5.672c0,1.183-0.791,2.118-1.791,2.118H13.644L11.75,21.438L11.75,21.438z M27.225,20.042
	h7.816 M27.351,12.574h11.853c1,0,1.791,0.935,1.791,2.118v16.14H41c0,1.183-0.791,2.118-1.791,2.118h-2.742
	c-0.317,0-0.581,0.185-0.791,0.439L33.358,37l-2.318-3.612c-0.156-0.312-0.473-0.439-0.791-0.439H16.44
	c-1,0-1.791-0.935-1.791-2.118v-9.348 M34.993,26.459H20.656 M21.339,14.194H7.056 M15.644,7.714H7.056"/>
</svg>
