<?xml version="1.0" encoding="utf-8"?>
<!-- Generator: Adobe Illustrator 21.0.0, SVG Export Plug-In . SVG Version: 6.00 Build 0)  -->
<svg version="1.1" id="Слой_1" xmlns="http://www.w3.org/2000/svg" xmlns:xlink="http://www.w3.org/1999/xlink" x="0px" y="0px"
	 width="83.855px" height="15px" viewBox="0 0 83.855 15" style="enable-background:new 0 0 83.855 15;" xml:space="preserve">
<style type="text/css">
	.st0{fill:#fff;}
</style>
<g>
	<path class="st0" d="M10.223,2.26v11.147h-2.58V8.837H2.58v4.571H0V2.26h2.58v4.396h5.063V2.26H10.223z"/>
	<path class="st0" d="M15.176,4.362h-3.568V2.26h9.714v2.102h-3.568v9.045h-2.579V4.362z"/>
	<path class="st0" d="M32.851,13.407l-0.016-6.688l-3.28,5.51h-1.162l-3.264-5.366v6.544h-2.421V2.26h2.133l4.173,6.928l4.108-6.928
		h2.119l0.031,11.147H32.851z"/>
	<path class="st0" d="M37.914,2.26h2.58v9.045h5.589v2.102h-8.169V2.26z"/>
	<path class="st0" d="M51.211,0h2.213L48.17,15h-2.215L51.211,0z"/>
	<path class="st0" d="M55.98,12.858c-0.919-0.494-1.641-1.178-2.167-2.054c-0.525-0.876-0.788-1.866-0.788-2.97
		s0.263-2.094,0.788-2.97c0.526-0.875,1.248-1.56,2.167-2.054c0.917-0.494,1.95-0.74,3.097-0.74c0.965,0,1.839,0.17,2.619,0.509
		c0.78,0.34,1.436,0.828,1.967,1.466l-1.656,1.528c-0.754-0.87-1.689-1.305-2.803-1.305c-0.691,0-1.306,0.15-1.847,0.454
		c-0.542,0.302-0.964,0.724-1.266,1.266c-0.303,0.542-0.455,1.157-0.455,1.847c0,0.691,0.152,1.306,0.455,1.848
		c0.302,0.54,0.724,0.963,1.266,1.266c0.54,0.302,1.156,0.454,1.847,0.454c1.114,0,2.049-0.441,2.803-1.322l1.656,1.528
		c-0.531,0.648-1.19,1.142-1.975,1.481c-0.785,0.34-1.661,0.509-2.628,0.509C57.925,13.598,56.898,13.352,55.98,12.858z"/>
	<path class="st0" d="M66.411,13.24c-0.823-0.238-1.484-0.549-1.983-0.932l0.876-1.943c0.478,0.35,1.046,0.631,1.704,0.844
		c0.658,0.213,1.315,0.319,1.974,0.319c0.733,0,1.274-0.109,1.625-0.327c0.35-0.218,0.525-0.507,0.525-0.868
		c0-0.264-0.104-0.485-0.31-0.661c-0.207-0.175-0.473-0.315-0.797-0.421S69.263,9.029,68.712,8.9
		c-0.85-0.201-1.545-0.403-2.086-0.604c-0.542-0.202-1.006-0.526-1.393-0.972c-0.389-0.446-0.582-1.041-0.582-1.783
		c0-0.648,0.175-1.235,0.526-1.76c0.35-0.526,0.877-0.942,1.584-1.251c0.706-0.307,1.569-0.461,2.588-0.461
		c0.711,0,1.406,0.086,2.086,0.255c0.679,0.17,1.274,0.413,1.783,0.732l-0.796,1.958c-1.03-0.583-2.06-0.876-3.089-0.876
		c-0.722,0-1.256,0.118-1.6,0.351c-0.345,0.233-0.518,0.542-0.518,0.923c0,0.382,0.2,0.667,0.597,0.853
		c0.398,0.185,1.006,0.369,1.823,0.549c0.85,0.201,1.545,0.403,2.086,0.605c0.542,0.201,1.006,0.52,1.393,0.955
		c0.387,0.435,0.582,1.025,0.582,1.768c0,0.636-0.179,1.218-0.534,1.743c-0.356,0.526-0.889,0.943-1.6,1.251
		c-0.711,0.308-1.576,0.461-2.596,0.461C68.085,13.598,67.234,13.479,66.411,13.24z"/>
	<path class="st0" d="M76.569,13.24c-0.823-0.238-1.484-0.549-1.983-0.932l0.876-1.943c0.478,0.35,1.046,0.631,1.704,0.844
		c0.658,0.213,1.315,0.319,1.974,0.319c0.733,0,1.274-0.109,1.625-0.327c0.35-0.218,0.525-0.507,0.525-0.868
		c0-0.264-0.104-0.485-0.31-0.661c-0.207-0.175-0.473-0.315-0.797-0.421S79.422,9.029,78.871,8.9
		c-0.85-0.201-1.545-0.403-2.086-0.604c-0.542-0.202-1.006-0.526-1.393-0.972c-0.389-0.446-0.582-1.041-0.582-1.783
		c0-0.648,0.175-1.235,0.526-1.76c0.35-0.526,0.877-0.942,1.584-1.251c0.706-0.307,1.569-0.461,2.588-0.461
		c0.711,0,1.406,0.086,2.086,0.255c0.679,0.17,1.274,0.413,1.783,0.732l-0.796,1.958c-1.03-0.583-2.06-0.876-3.089-0.876
		c-0.722,0-1.256,0.118-1.6,0.351c-0.345,0.233-0.518,0.542-0.518,0.923c0,0.382,0.2,0.667,0.597,0.853
		c0.398,0.185,1.006,0.369,1.823,0.549c0.85,0.201,1.545,0.403,2.086,0.605c0.542,0.201,1.006,0.52,1.393,0.955
		c0.387,0.435,0.582,1.025,0.582,1.768c0,0.636-0.179,1.218-0.534,1.743c-0.356,0.526-0.889,0.943-1.6,1.251
		c-0.711,0.308-1.576,0.461-2.596,0.461C78.244,13.598,77.392,13.479,76.569,13.24z"/>
</g>
</svg>
