<?xml version="1.0" encoding="utf-8"?>
<!-- Generator: Adobe Illustrator 21.0.0, SVG Export Plug-In . SVG Version: 6.00 Build 0)  -->
<svg version="1.1" id="Слой_1" xmlns="http://www.w3.org/2000/svg" xmlns:xlink="http://www.w3.org/1999/xlink" x="0px" y="0px"
	 width="34.03px" height="11.147px" viewBox="0 0 34.03 11.147" style="enable-background:new 0 0 34.03 11.147;"
	 xml:space="preserve">
<style type="text/css">
	.st0{fill:#fff;}
</style>
<g>
	<path class="st0" d="M7.397,0.494c0.727,0.329,1.287,0.797,1.679,1.402s0.59,1.322,0.59,2.15c0,0.816-0.197,1.53-0.59,2.141
		S8.124,7.265,7.397,7.589C6.669,7.913,5.812,8.073,4.825,8.073H2.58v3.074H0V0h4.825C5.812,0,6.669,0.166,7.397,0.494z M6.45,5.47
		c0.403-0.334,0.604-0.809,0.604-1.424c0-0.627-0.201-1.107-0.604-1.442C6.045,2.269,5.456,2.102,4.682,2.102H2.58v3.87h2.102
		C5.456,5.971,6.045,5.804,6.45,5.47z"/>
	<path class="st0" d="M21.721,0v11.147h-2.58V6.577h-5.063v4.571h-2.58V0h2.58v4.396h5.063V0H21.721z"/>
	<path class="st0" d="M31.761,0.494c0.727,0.329,1.287,0.797,1.679,1.402c0.393,0.605,0.59,1.322,0.59,2.15
		c0,0.816-0.197,1.53-0.59,2.141c-0.393,0.61-0.952,1.078-1.679,1.402c-0.728,0.324-1.585,0.485-2.572,0.485h-2.244v3.074h-2.58V0
		h4.825C30.176,0,31.033,0.166,31.761,0.494z M30.814,5.47c0.403-0.334,0.604-0.809,0.604-1.424c0-0.627-0.201-1.107-0.604-1.442
		c-0.404-0.334-0.994-0.502-1.768-0.502h-2.102v3.87h2.102C29.82,5.971,30.41,5.804,30.814,5.47z"/>
</g>
</svg>
