<?xml version="1.0" encoding="utf-8"?>
<!-- Generator: Adobe Illustrator 21.0.0, SVG Export Plug-In . SVG Version: 6.00 Build 0)  -->
<svg version="1.1" id="Слой_1" xmlns="http://www.w3.org/2000/svg" xmlns:xlink="http://www.w3.org/1999/xlink" x="0px" y="0px"
	 width="190.416px" height="13.901px" viewBox="0 0 190.416 13.901" style="enable-background:new 0 0 190.416 13.901;"
	 xml:space="preserve">
<style type="text/css">
	.st0{fill:#EF5050;}
</style>
<g>
	<path class="st0" d="M7.397,0.684c0.727,0.329,1.287,0.797,1.679,1.402s0.59,1.322,0.59,2.15c0,0.816-0.197,1.53-0.59,2.141
		S8.124,7.455,7.397,7.779C6.669,8.103,5.812,8.264,4.825,8.264H2.58v3.074H0V0.19h4.825C5.812,0.19,6.669,0.356,7.397,0.684z
		 M6.45,5.66c0.403-0.334,0.604-0.809,0.604-1.424c0-0.627-0.201-1.107-0.604-1.442C6.045,2.46,5.456,2.292,4.682,2.292H2.58v3.87
		h2.102C5.456,6.162,6.045,5.995,6.45,5.66z"/>
	<path class="st0" d="M21.721,0.19v11.147h-2.58V6.767h-5.063v4.571h-2.58V0.19h2.58v4.396h5.063V0.19H21.721z"/>
	<path class="st0" d="M31.761,0.684c0.727,0.329,1.287,0.797,1.679,1.402c0.393,0.605,0.59,1.322,0.59,2.15
		c0,0.816-0.197,1.53-0.59,2.141c-0.393,0.61-0.952,1.078-1.679,1.402c-0.728,0.324-1.585,0.485-2.572,0.485h-2.244v3.074h-2.58
		V0.19h4.825C30.176,0.19,31.033,0.356,31.761,0.684z M30.814,5.66c0.403-0.334,0.604-0.809,0.604-1.424
		c0-0.627-0.201-1.107-0.604-1.442C30.41,2.46,29.82,2.292,29.046,2.292h-2.102v3.87h2.102C29.82,6.162,30.41,5.995,30.814,5.66z"/>
	<path class="st0" d="M37.47,8.798c0.286,0.281,0.43,0.651,0.43,1.107c0,0.213-0.027,0.425-0.08,0.638
		c-0.053,0.213-0.17,0.53-0.35,0.955l-0.908,2.292h-1.576l0.701-2.531c-0.266-0.106-0.476-0.279-0.63-0.518
		c-0.154-0.238-0.231-0.517-0.231-0.836c0-0.456,0.146-0.825,0.438-1.107c0.292-0.281,0.661-0.422,1.107-0.422
		C36.816,8.375,37.183,8.517,37.47,8.798z"/>
	<path class="st0" d="M54.411,11.338L54.395,4.65l-3.28,5.51h-1.162l-3.264-5.366v6.544h-2.421V0.19h2.133l4.173,6.928l4.108-6.928
		H56.8l0.031,11.147H54.411z"/>
	<path class="st0" d="M64.826,7.389v3.949h-2.58V7.357L57.93,0.19h2.74l2.977,4.953l2.978-4.953h2.532L64.826,7.389z"/>
	<path class="st0" d="M71.108,11.171c-0.823-0.238-1.484-0.549-1.983-0.932l0.876-1.943c0.478,0.35,1.046,0.631,1.704,0.844
		c0.658,0.213,1.315,0.319,1.974,0.319c0.733,0,1.274-0.109,1.625-0.327c0.35-0.218,0.525-0.507,0.525-0.868
		c0-0.264-0.104-0.485-0.31-0.661c-0.207-0.175-0.473-0.315-0.797-0.421c-0.324-0.106-0.762-0.223-1.313-0.351
		c-0.85-0.201-1.545-0.403-2.086-0.604c-0.542-0.202-1.006-0.526-1.393-0.972c-0.389-0.446-0.582-1.041-0.582-1.783
		c0-0.648,0.175-1.235,0.526-1.76c0.35-0.526,0.877-0.942,1.584-1.251C72.165,0.154,73.028,0,74.046,0
		c0.711,0,1.406,0.086,2.086,0.255c0.679,0.17,1.274,0.413,1.783,0.732L77.12,2.946c-1.03-0.583-2.06-0.876-3.089-0.876
		c-0.722,0-1.256,0.118-1.6,0.351s-0.518,0.542-0.518,0.923c0,0.382,0.2,0.667,0.597,0.853c0.398,0.185,1.006,0.369,1.823,0.549
		c0.85,0.201,1.545,0.403,2.086,0.605c0.542,0.201,1.006,0.52,1.393,0.955c0.387,0.435,0.582,1.025,0.582,1.768
		c0,0.636-0.179,1.218-0.534,1.743c-0.356,0.526-0.889,0.943-1.6,1.251c-0.711,0.308-1.576,0.461-2.596,0.461
		C72.783,11.528,71.931,11.409,71.108,11.171z"/>
	<path class="st0" d="M92.215,12.533c-0.362,0.446-0.8,0.785-1.314,1.019c-0.514,0.233-1.081,0.35-1.696,0.35
		c-0.827,0-1.576-0.178-2.244-0.533c-0.669-0.356-1.433-0.985-2.294-1.887c-1.008-0.128-1.908-0.452-2.698-0.972
		c-0.792-0.52-1.407-1.191-1.848-2.014s-0.661-1.734-0.661-2.732c0-1.092,0.263-2.077,0.788-2.953
		c0.526-0.876,1.253-1.563,2.182-2.063C83.359,0.25,84.402,0,85.559,0c1.156,0,2.197,0.25,3.121,0.748
		c0.924,0.5,1.651,1.187,2.181,2.063c0.531,0.876,0.797,1.861,0.797,2.953c0,1.296-0.364,2.431-1.091,3.408s-1.691,1.656-2.89,2.038
		c0.266,0.276,0.522,0.474,0.772,0.596c0.249,0.123,0.517,0.184,0.803,0.184c0.691,0,1.296-0.276,1.816-0.828L92.215,12.533z
		 M82.525,7.612c0.302,0.54,0.719,0.963,1.249,1.266c0.531,0.302,1.126,0.454,1.784,0.454c0.657,0,1.252-0.152,1.783-0.454
		c0.53-0.303,0.947-0.726,1.249-1.266c0.303-0.542,0.455-1.157,0.455-1.848c0-0.689-0.152-1.305-0.455-1.847
		c-0.302-0.542-0.719-0.964-1.249-1.266c-0.531-0.303-1.126-0.454-1.783-0.454c-0.658,0-1.253,0.15-1.784,0.454
		c-0.53,0.302-0.947,0.724-1.249,1.266c-0.303,0.542-0.455,1.157-0.455,1.847C82.07,6.455,82.222,7.07,82.525,7.612z"/>
	<path class="st0" d="M93.6,0.19h2.58v9.045h5.589v2.102H93.6V0.19z"/>
	<path class="st0" d="M105.575,8.798c0.286,0.281,0.43,0.651,0.43,1.107c0,0.213-0.027,0.425-0.08,0.638
		c-0.053,0.213-0.17,0.53-0.35,0.955l-0.908,2.292h-1.576l0.701-2.531c-0.266-0.106-0.476-0.279-0.63-0.518
		c-0.154-0.238-0.231-0.517-0.231-0.836c0-0.456,0.146-0.825,0.438-1.107c0.292-0.281,0.661-0.422,1.107-0.422
		C104.922,8.375,105.289,8.517,105.575,8.798z"/>
	<path class="st0" d="M115.972,0.19v11.147h-2.58V2.261h-2.229V0.19H115.972z"/>
	<path class="st0" d="M120.87,10.788c-0.919-0.494-1.641-1.178-2.167-2.054c-0.525-0.876-0.788-1.866-0.788-2.97
		s0.263-2.094,0.788-2.97c0.526-0.875,1.248-1.56,2.167-2.054c0.917-0.494,1.95-0.74,3.097-0.74c0.965,0,1.839,0.17,2.619,0.509
		s1.436,0.828,1.967,1.466l-1.656,1.528c-0.754-0.87-1.689-1.305-2.803-1.305c-0.691,0-1.306,0.15-1.847,0.454
		c-0.542,0.302-0.964,0.724-1.266,1.266c-0.303,0.542-0.455,1.157-0.455,1.847c0,0.691,0.152,1.306,0.455,1.848
		c0.302,0.54,0.724,0.963,1.266,1.266c0.54,0.302,1.156,0.454,1.847,0.454c1.114,0,2.049-0.441,2.803-1.322l1.656,1.528
		c-0.531,0.648-1.19,1.142-1.975,1.481c-0.785,0.34-1.661,0.509-2.628,0.509C122.815,11.528,121.787,11.282,120.87,10.788z"/>
	<path class="st0" d="M129.444,4.698h4.506v1.99h-4.506V4.698z"/>
	<path class="st0" d="M145.926,6.552c0.36,0.473,0.542,1.055,0.542,1.744c0,0.977-0.38,1.727-1.139,2.254
		c-0.759,0.525-1.866,0.788-3.32,0.788h-5.764V0.19h5.445c1.359,0,2.403,0.26,3.13,0.781c0.727,0.52,1.091,1.226,1.091,2.117
		c0,0.542-0.131,1.024-0.39,1.449c-0.26,0.425-0.625,0.759-1.091,1.003C145.065,5.743,145.564,6.08,145.926,6.552z M138.807,2.134
		v2.627h2.565c0.636,0,1.12-0.111,1.449-0.334c0.329-0.223,0.494-0.552,0.494-0.987s-0.165-0.762-0.494-0.98
		c-0.329-0.216-0.813-0.325-1.449-0.325H138.807z M143.353,9.061c0.346-0.223,0.518-0.568,0.518-1.035
		c0-0.924-0.686-1.385-2.054-1.385h-3.01v2.755h3.01C142.497,9.395,143.009,9.284,143.353,9.061z"/>
	<path class="st0" d="M148.425,0.19h2.58v11.147h-2.58V0.19z"/>
	<path class="st0" d="M155.959,2.292h-3.568V0.19h9.714v2.102h-3.568v9.045h-2.579V2.292z"/>
	<path class="st0" d="M170.592,11.338l-2.15-3.105h-0.127h-2.244v3.105h-2.58V0.19h4.825c0.987,0,1.844,0.166,2.572,0.494
		c0.727,0.329,1.287,0.797,1.679,1.402s0.59,1.322,0.59,2.15s-0.2,1.542-0.597,2.141c-0.398,0.6-0.964,1.059-1.696,1.378l2.5,3.583
		H170.592z M169.94,2.794c-0.404-0.334-0.994-0.502-1.768-0.502h-2.102v3.886h2.102c0.774,0,1.363-0.17,1.768-0.511
		c0.403-0.34,0.604-0.816,0.604-1.432C170.544,3.609,170.343,3.13,169.94,2.794z"/>
	<path class="st0" d="M175.194,0.19h2.58v11.147h-2.58V0.19z"/>
	<path class="st0" d="M187.438,11.338l-2.692-3.87l-2.644,3.87h-2.961l4.124-5.67l-3.916-5.478h2.93l2.563,3.616l2.515-3.616h2.787
		l-3.885,5.383l4.156,5.764H187.438z"/>
</g>
</svg>
