<?xml version="1.0" encoding="utf-8"?>
<!-- Generator: Adobe Illustrator 21.0.0, SVG Export Plug-In . SVG Version: 6.00 Build 0)  -->
<svg version="1.1" id="Слой_1" xmlns="http://www.w3.org/2000/svg" xmlns:xlink="http://www.w3.org/1999/xlink" x="0px" y="0px"
	 width="39px" height="43px" viewBox="0 0 39 43" style="enable-background:new 0 0 39 43;" xml:space="preserve">
<style type="text/css">
	.st0{fill:none;stroke:url(#SVGID_1_);stroke-width:2;stroke-linecap:round;stroke-linejoin:round;stroke-miterlimit:10;}
</style>
<linearGradient id="SVGID_1_" gradientUnits="userSpaceOnUse" x1="0" y1="21.5" x2="39" y2="21.5">
	<stop  offset="0" style="stop-color:#EF5050"/>
	<stop  offset="1" style="stop-color:#EA7760"/>
</linearGradient>
<path class="st0" d="M7.375,37.581v2.848V42 M38,39.407v-3.155c0-4.644-4.071-6.332-4.244-6.402
	c-0.005-0.002-0.01-0.004-0.015-0.006l-9.614-3.637v-2.202c1.527-1.16,2.586-2.879,2.851-4.841c0.761-0.052,1.468-0.33,2.045-0.815
	c0.753-0.633,1.186-1.554,1.186-2.527c0-0.807-0.298-1.578-0.83-2.179v-2.91C29.379,5.367,24.908,1,19.413,1
	s-9.966,4.367-9.966,9.735v2.986c-0.537,0.595-0.829,1.326-0.829,2.102c0,0.973,0.432,1.894,1.186,2.527
	c0.576,0.484,1.282,0.762,2.044,0.814c0.268,1.998,1.358,3.782,3.014,4.958v2.086l-9.603,3.637c-0.005,0.002-0.01,0.004-0.015,0.006
	C5.071,29.92,1,31.608,1,36.252v3.743C1,41.1,1.921,42,3.052,42h7.661l3.753,0h21.482C37.079,42,38,41.101,38,39.995v-1.237
	L38,39.407z M22.425,34.358c0.358,0.248,0.634,0.488,1.151,0.488c0.526,0,1.018-0.288,1.26-0.761v0l3.257-6.376 M31.625,42v-1.571
	v-2.848 M10.969,27.682l3.19,6.402c0.243,0.475,0.735,0.761,1.26,0.761c0.515,0,0.788-0.236,1.151-0.488 M16.57,34.358l2.927-2.031
	l2.928,2.031 M19.497,30.111 M14.862,24.122c0,0,0.754,0.531,1.608,0.87c0.977,0.385,2.021,0.563,3.041,0.563
	c1.054,0,2.088-0.22,3.008-0.612c0,0,0.1-0.021,1.608-0.937 M26.978,19.164l0.067-1.588V14.07l0-1.583 M11.848,19.164l-0.066-1.588
	V14.11l0.043-1.601 M29.379,13.644c-0.571-0.701-1.608-1.02-1.608-1.02c-0.234-0.069-0.476-0.115-0.725-0.137
	c0-0.758,0.007-0.612-2.532-3.277c-0.467-0.49-1.239-0.593-1.827-0.218c-2.801,1.788-6.219,2.686-9.372,2.464
	c-0.692-0.051-1.322,0.394-1.491,1.052c-0.256,0.029-0.55,0.096-0.768,0.169c-1.139,0.372-1.608,1.042-1.608,1.042 M14.862,26.208
	l4.635,6.119l4.63-6.119"/>
</svg>
