<?xml version="1.0" encoding="utf-8"?>
<!-- Generator: Adobe Illustrator 21.0.0, SVG Export Plug-In . SVG Version: 6.00 Build 0)  -->
<svg version="1.1" id="Слой_1" xmlns="http://www.w3.org/2000/svg" xmlns:xlink="http://www.w3.org/1999/xlink" x="0px" y="0px"
	 width="39px" height="43px" viewBox="0 0 39 43" style="enable-background:new 0 0 39 43;" xml:space="preserve">
<style type="text/css">
	.st0{fill:none;stroke:url(#SVGID_1_);stroke-width:2;stroke-linecap:round;stroke-linejoin:round;stroke-miterlimit:10;}
</style>
<linearGradient id="SVGID_1_" gradientUnits="userSpaceOnUse" x1="0" y1="21.5" x2="39" y2="21.5">
	<stop  offset="0" style="stop-color:#EF5050"/>
	<stop  offset="1" style="stop-color:#EA7760"/>
</linearGradient>
<path class="st0" d="M19.5,8.826C13.495,8.831,8.628,13.665,8.624,19.629c0.054,3.893,1.961,7.531,5.141,9.807v7.802
	c0.003,0.089,0.021,0.177,0.054,0.26v0.061c0.013,0.032,0.029,0.062,0.046,0.092l2.713,4.012C16.722,41.874,16.962,42,17.218,42
	h4.486c0.256,0,0.496-0.126,0.64-0.337l2.713-4.012c0.017-0.03,0.033-0.06,0.046-0.092v-0.061c0.033-0.083,0.051-0.171,0.054-0.26
	v-7.802c3.181-2.276,5.088-5.914,5.141-9.807C30.295,13.694,25.475,8.873,19.5,8.826z M25.158,32.943H13.765 M19.808,13.826
	c3.204,0.004,5.8,2.583,5.804,5.765 M1,20.356h5.55 M32.45,20.356H38 M6.859,33.233c0.03-0.026,0.058-0.054,0.084-0.084l3.939-3.912
	 M29.205,11.031l3.939-3.912 M28.665,11.261 M33.297,32.224c-0.043-0.058-0.095-0.11-0.153-0.154l-3.939-3.928 M5.856,7.119
	l3.939,3.912 M19.403,1v5.535 M13.865,37.651l11.239-0.092"/>
</svg>
