<?xml version="1.0" encoding="utf-8"?>
<!-- Generator: Adobe Illustrator 21.0.0, SVG Export Plug-In . SVG Version: 6.00 Build 0)  -->
<svg version="1.1" id="Слой_1" xmlns="http://www.w3.org/2000/svg" xmlns:xlink="http://www.w3.org/1999/xlink" x="0px" y="0px"
	 width="45px" height="42.993px" viewBox="0 0 45 42.993" style="enable-background:new 0 0 45 42.993;" xml:space="preserve">
<style type="text/css">
	.st0{fill:none;stroke:url(#SVGID_1_);stroke-width:2;stroke-linecap:round;stroke-linejoin:round;stroke-miterlimit:10;}
</style>
<linearGradient id="SVGID_1_" gradientUnits="userSpaceOnUse" x1="0" y1="21.4963" x2="45" y2="21.4963">
	<stop  offset="0" style="stop-color:#EF5050"/>
	<stop  offset="1" style="stop-color:#EA7760"/>
</linearGradient>
<path class="st0" d="M20.549,7.841c0,3.772,3.093,6.841,6.894,6.841s6.894-3.069,6.894-6.841S31.244,1,27.443,1
	S20.549,4.069,20.549,7.841z M10.674,41.746c0.326,0.326,0.856,0.329,1.185,0.007l4.072-3.98c0.692-0.686,0.902-1.703,0.598-2.586
	l0.876-0.838c0.472-0.452,1.092-0.701,1.749-0.701h11.165c1.981,0,3.853-0.755,5.272-2.125c0.058-0.056-0.443,0.53,7.617-9.029
	c1.196-1.403,1.017-3.511-0.399-4.699c-1.407-1.176-3.514-1.007-4.713,0.372L33.14,23.22c-0.626-0.764-1.58-1.241-2.611-1.241
	h-9.366c-1.333-0.553-2.747-0.833-4.206-0.833c-4.044,0-7.576,1.853-9.471,5.329c-0.798-0.15-1.641,0.09-2.246,0.691l-3.995,3.976
	c-0.326,0.325-0.327,0.85-0.001,1.176L10.674,41.746z M33.14,23.22c0,0,0.73,0.881,0.719,1.657c0.019,0.144,0.03,0.289,0.03,0.436
	c0,1.838-1.507,3.333-3.359,3.333h-6.852 M7.487,26.475l9.042,8.711"/>
</svg>
