<?xml version="1.0" encoding="utf-8"?>
<!-- Generator: Adobe Illustrator 21.0.0, SVG Export Plug-In . SVG Version: 6.00 Build 0)  -->
<svg version="1.1" id="Слой_1" xmlns="http://www.w3.org/2000/svg" xmlns:xlink="http://www.w3.org/1999/xlink" x="0px" y="0px"
	 width="40px" height="38px" viewBox="0 0 40 38" style="enable-background:new 0 0 40 38;" xml:space="preserve">
<style type="text/css">
	.st0{fill:none;stroke:url(#SVGID_1_);stroke-width:2;stroke-linecap:round;stroke-linejoin:round;stroke-miterlimit:10;}
</style>
<linearGradient id="SVGID_1_" gradientUnits="userSpaceOnUse" x1="-1.818989e-12" y1="19" x2="40" y2="19">
	<stop  offset="0" style="stop-color:#EF5050"/>
	<stop  offset="1" style="stop-color:#EA7760"/>
</linearGradient>
<path class="st0" d="M18.276,7.008c0,3.313,2.733,6.008,6.093,6.008s6.093-2.695,6.093-6.008S27.728,1,24.368,1
	S18.276,3.695,18.276,7.008z M9.549,36.784c0.288,0.286,0.756,0.289,1.048,0.006l3.598-3.496c0.611-0.603,0.797-1.495,0.528-2.271
	l0.774-0.736c0.417-0.397,0.965-0.616,1.545-0.616h9.867c1.75,0,3.405-0.663,4.659-1.867c0.052-0.049-0.392,0.466,6.731-7.929
	c1.056-1.233,0.898-3.083-0.353-4.126c-1.243-1.033-3.106-0.885-4.165,0.327l-4.38,4.439c-0.553-0.671-1.396-1.09-2.308-1.09h-8.277
	c-1.178-0.486-2.427-0.732-3.717-0.732c-3.574,0-6.695,1.628-8.37,4.68c-0.706-0.132-1.45,0.079-1.985,0.607l-3.531,3.492
	c-0.288,0.285-0.289,0.746-0.001,1.032L9.549,36.784z M29.403,20.514c0,0,0.645,0.774,0.635,1.455
	c0.017,0.126,0.026,0.254,0.026,0.383c0,1.614-1.332,2.927-2.969,2.927H21.04 M6.733,23.372l7.991,7.65"/>
</svg>
