<?xml version="1.0" encoding="utf-8"?>
<!-- Generator: Adobe Illustrator 21.0.0, SVG Export Plug-In . SVG Version: 6.00 Build 0)  -->
<svg version="1.1" id="Слой_1" xmlns="http://www.w3.org/2000/svg" xmlns:xlink="http://www.w3.org/1999/xlink" x="0px" y="0px"
	 width="103.425px" height="11.528px" viewBox="0 0 103.425 11.528" style="enable-background:new 0 0 103.425 11.528;"
	 xml:space="preserve">
<style type="text/css">
	.st0{fill:#fff;}
</style>
<g>
	<path class="st0" d="M1.552,11.107C0.921,10.826,0.404,10.425,0,9.905l1.433-1.72c0.605,0.818,1.296,1.226,2.071,1.226
		c1.051,0,1.576-0.616,1.576-1.847V2.261H1.162V0.19h6.482v7.23c0,1.37-0.341,2.396-1.02,3.082
		c-0.679,0.684-1.677,1.026-2.994,1.026C2.877,11.528,2.185,11.388,1.552,11.107z"/>
	<path class="st0" d="M17.294,8.949h-5.176l-0.987,2.388H8.487L13.455,0.19h2.548l4.984,11.147h-2.706L17.294,8.949z M16.481,6.99
		l-1.768-4.267L12.946,6.99H16.481z"/>
	<path class="st0" d="M32.263,0.19l-4.826,11.147h-2.548L20.08,0.19h2.787l3.391,7.962l3.439-7.962H32.263z"/>
	<path class="st0" d="M40.161,8.949h-5.176l-0.987,2.388h-2.644L36.323,0.19h2.548l4.984,11.147h-2.706L40.161,8.949z M39.349,6.99
		l-1.768-4.267L35.813,6.99H39.349z"/>
	<path class="st0" d="M46.124,11.171c-0.823-0.238-1.484-0.549-1.983-0.932l0.876-1.943c0.478,0.35,1.046,0.631,1.704,0.844
		c0.658,0.213,1.315,0.319,1.974,0.319c0.733,0,1.274-0.109,1.625-0.327c0.35-0.218,0.525-0.507,0.525-0.868
		c0-0.264-0.104-0.485-0.31-0.661c-0.207-0.175-0.473-0.315-0.797-0.421c-0.324-0.106-0.762-0.223-1.313-0.351
		c-0.85-0.201-1.545-0.403-2.086-0.604c-0.542-0.202-1.006-0.526-1.393-0.972c-0.389-0.446-0.582-1.041-0.582-1.783
		c0-0.648,0.175-1.235,0.526-1.76c0.35-0.526,0.877-0.942,1.584-1.251C47.18,0.154,48.043,0,49.061,0
		c0.711,0,1.406,0.086,2.086,0.255c0.679,0.17,1.274,0.413,1.783,0.732l-0.796,1.958c-1.03-0.583-2.06-0.876-3.089-0.876
		c-0.722,0-1.256,0.118-1.6,0.351c-0.345,0.233-0.518,0.542-0.518,0.923c0,0.382,0.2,0.667,0.597,0.853
		c0.398,0.185,1.006,0.369,1.823,0.549c0.85,0.201,1.545,0.403,2.086,0.605c0.542,0.201,1.006,0.52,1.393,0.955
		c0.387,0.435,0.582,1.025,0.582,1.768c0,0.636-0.179,1.218-0.534,1.743c-0.356,0.526-0.889,0.943-1.6,1.251
		c-0.711,0.308-1.576,0.461-2.596,0.461C47.798,11.528,46.946,11.409,46.124,11.171z"/>
	<path class="st0" d="M57.43,10.788c-0.919-0.494-1.641-1.178-2.167-2.054c-0.525-0.876-0.788-1.866-0.788-2.97
		s0.263-2.094,0.788-2.97c0.526-0.875,1.248-1.56,2.167-2.054C58.348,0.246,59.381,0,60.527,0c0.965,0,1.839,0.17,2.619,0.509
		c0.78,0.34,1.436,0.828,1.967,1.466l-1.656,1.528c-0.754-0.87-1.689-1.305-2.803-1.305c-0.691,0-1.306,0.15-1.847,0.454
		c-0.542,0.302-0.964,0.724-1.266,1.266c-0.303,0.542-0.455,1.157-0.455,1.847c0,0.691,0.152,1.306,0.455,1.848
		c0.302,0.54,0.724,0.963,1.266,1.266c0.54,0.302,1.156,0.454,1.847,0.454c1.114,0,2.049-0.441,2.803-1.322l1.656,1.528
		c-0.531,0.648-1.19,1.142-1.975,1.481c-0.785,0.34-1.661,0.509-2.628,0.509C59.375,11.528,58.348,11.282,57.43,10.788z"/>
	<path class="st0" d="M73.95,11.338L71.8,8.233h-0.127h-2.244v3.105h-2.58V0.19h4.825c0.987,0,1.844,0.166,2.572,0.494
		c0.727,0.329,1.287,0.797,1.679,1.402s0.59,1.322,0.59,2.15s-0.2,1.542-0.597,2.141c-0.398,0.6-0.964,1.059-1.696,1.378l2.5,3.583
		H73.95z M73.298,2.794c-0.404-0.334-0.994-0.502-1.768-0.502h-2.102v3.886h2.102c0.774,0,1.363-0.17,1.768-0.511
		c0.403-0.34,0.604-0.816,0.604-1.432C73.902,3.609,73.702,3.13,73.298,2.794z"/>
	<path class="st0" d="M78.552,0.19h2.58v11.147h-2.58V0.19z"/>
	<path class="st0" d="M91.173,0.684c0.727,0.329,1.287,0.797,1.679,1.402c0.393,0.605,0.59,1.322,0.59,2.15
		c0,0.816-0.197,1.53-0.59,2.141c-0.393,0.61-0.952,1.078-1.679,1.402c-0.728,0.324-1.585,0.485-2.572,0.485h-2.244v3.074h-2.58
		V0.19H88.6C89.588,0.19,90.444,0.356,91.173,0.684z M90.225,5.66c0.403-0.334,0.604-0.809,0.604-1.424
		c0-0.627-0.201-1.107-0.604-1.442c-0.404-0.334-0.994-0.502-1.768-0.502h-2.102v3.87h2.102C89.232,6.162,89.821,5.995,90.225,5.66z
		"/>
	<path class="st0" d="M97.279,2.292h-3.568V0.19h9.714v2.102h-3.568v9.045h-2.579V2.292z"/>
</g>
</svg>
